<?xml version="1.0" encoding="UTF-8" standalone="no"?> <!-- Created with Vectornator for iOS (http://vectornator.io/) --><!DOCTYPE svg PUBLIC "-//W3C//DTD SVG 1.1//EN" "http://www.w3.org/Graphics/SVG/1.1/DTD/svg11.dtd">
<svg height="100%" style="fill-rule:evenodd;clip-rule:evenodd;stroke-linecap:round;stroke-linejoin:round;" xmlns:xlink="http://www.w3.org/1999/xlink" xmlns="http://www.w3.org/2000/svg" xml:space="preserve" width="100%" xmlns:vectornator="http://vectornator.io" version="1.1" viewBox="0 0 530.973 551.986">

<defs/>
<g id="Layer 1" vectornator:layerName="Layer 1">
<g opacity="1">
<path d="M265.487+32.1062C118.882+32.1062+1.93728e-05+145.433+1.93728e-05+285.244C1.93728e-05+397.083+76.07+491.97+181.556+525.442C194.824+527.785+199.695+519.95+199.695+513.264C199.695+507.232+199.449+487.288+199.335+466.135C125.476+481.448+109.891+436.268+109.891+436.268C97.8143+407.013+80.4136+399.229+80.4136+399.229C56.326+383.518+82.2293+383.841+82.2293+383.841C108.889+385.627+122.926+409.931+122.926+409.931C146.605+448.626+185.033+437.438+200.183+430.97C202.57+414.613+209.446+403.442+217.039+397.121C158.071+390.724+96.0821+369.014+96.0821+272.019C96.0821+244.386+106.453+221.8+123.436+204.073C120.68+197.697+111.592+171.951+126.012+137.083C126.012+137.083+148.306+130.284+199.036+163.035C220.213+157.426+242.924+154.613+265.487+154.513C288.049+154.613+310.778+157.426+331.994+163.035C382.667+130.284+404.93+137.083+404.93+137.083C419.381+171.951+410.293+197.697+407.537+204.073C424.559+221.8+434.856+244.386+434.856+272.019C434.856+369.249+372.749+390.653+313.631+396.919C323.153+404.775+331.638+420.18+331.638+443.797C331.638+477.667+331.335+504.927+331.335+513.264C331.335+520.005+336.109+527.894+349.567+525.412C455+491.903+530.973+397.049+530.973+285.244C530.973+145.433+412.109+32.1062+265.487+32.1062" opacity="1" fill="#181717"/>
<path d="M100.555+395.554C99.9703+396.815+97.8952+397.193+96.0048+396.329C94.0748+395.499+92.9977+393.785+93.622+392.523C94.1935+391.232+96.2686+390.871+98.1942+391.735C100.12+392.561+101.219+394.292+100.555+395.554" opacity="1" fill="#181717"/>
<path d="M111.31+406.991C110.044+408.11+107.564+407.591+105.889+405.822C104.148+404.057+103.827+401.693+105.111+400.561C106.417+399.442+108.817+399.966+110.554+401.73C112.295+403.516+112.633+405.855+111.31+406.991" opacity="1" fill="#181717"/>
<path d="M121.777+421.568C120.15+422.65+117.486+421.64+115.842+419.389C114.215+417.133+114.215+414.434+115.882+413.352C117.526+412.271+120.15+413.247+121.817+415.478C123.439+417.766+123.439+420.466+121.777+421.568" opacity="1" fill="#181717"/>
<path d="M136.117+435.655C134.661+437.185+131.562+436.774+129.293+434.682C126.972+432.645+126.326+429.748+127.781+428.218C129.258+426.684+132.375+427.116+134.661+429.187C136.965+431.224+137.664+434.141+136.117+435.655" opacity="1" fill="#181717"/>
<path d="M155.9+443.833C155.254+445.816+152.273+446.713+149.266+445.871C146.263+445.003+144.298+442.685+144.905+440.681C145.529+438.686+148.527+437.747+151.557+438.648C154.555+439.512+156.524+441.817+155.9+443.833" opacity="1" fill="#181717"/>
<path d="M177.629+445.348C177.703+447.436+175.154+449.167+171.997+449.205C168.823+449.272+166.251+447.583+166.216+445.529C166.216+443.42+168.713+441.71+171.883+441.655C175.039+441.597+177.629+443.278+177.629+445.348" opacity="1" fill="#181717"/>
<path d="M197.846+442.069C198.224+444.102+196.03+446.194+192.895+446.751C189.814+447.292+186.96+446.03+186.569+444.014C186.187+441.926+188.416+439.835+191.497+439.294C194.636+438.774+197.446+439.998+197.846+442.069" opacity="1" fill="#181717"/>
</g>
</g>
</svg>
