<?xml version="1.0" encoding="UTF-8" standalone="no"?> <!-- Created with Vectornator for iOS (http://vectornator.io/) --><!DOCTYPE svg PUBLIC "-//W3C//DTD SVG 1.1//EN" "http://www.w3.org/Graphics/SVG/1.1/DTD/svg11.dtd">
<svg height="100%" style="fill-rule:evenodd;clip-rule:evenodd;stroke-linecap:round;stroke-linejoin:round;" xmlns:xlink="http://www.w3.org/1999/xlink" xmlns="http://www.w3.org/2000/svg" xml:space="preserve" width="100%" xmlns:vectornator="http://vectornator.io" version="1.1" viewBox="0 0 1024 1024">
<metadata>
<vectornator:setting key="DisplayWhiteBackground" value="0"/>
<vectornator:setting key="RulersVisible" value="1"/>
<vectornator:setting key="Units" value="Pixels"/>
<vectornator:setting key="New" value="1"/>
<vectornator:setting key="DynamicGuides" value="0"/>
<vectornator:setting key="GuidesVisible" value="1"/>
<vectornator:setting key="SnapToPoints" value="0"/>
<vectornator:setting key="SnapToGrid" value="0"/>
<vectornator:setting key="SnapToGuides" value="1"/>
<vectornator:setting key="DimensionsVisible" value="1"/>
<vectornator:setting key="SnapToEdges" value="0"/>
</metadata>
<defs/>
<g id="Layer 1" vectornator:layerName="Layer 1">
<g opacity="1">
<path d="M175.905+175.726L210.508+175.726C227.902+175.726+242.002+182.311+242.002+190.434L242.002+808.791C242.002+816.914+227.902+823.499+210.508+823.499L175.905+823.499C158.511+823.499+144.411+816.914+144.411+808.791L144.411+190.434C144.411+182.311+158.511+175.726+175.905+175.726Z" opacity="1" fill="#000000"/>
<path d="M175.691+201.67L206.231+187.563C221.582+180.472+237.502+180.904+241.788+188.528L568.091+768.922C572.377+776.546+563.407+788.475+548.056+795.566L517.516+809.672C502.165+816.763+486.246+816.331+481.959+808.707L155.656+228.313C151.37+220.689+160.34+208.76+175.691+201.67Z" opacity="1" fill="#000000"/>
<path d="M515.332+176.113L549.804+176.113C567.132+176.113+581.179+182.697+581.179+190.82L581.179+809.178C581.179+817.301+567.132+823.885+549.804+823.885L515.332+823.885C498.004+823.885+483.956+817.301+483.956+809.178L483.956+190.82C483.956+182.697+498.004+176.113+515.332+176.113Z" opacity="1" fill="#000000"/>
<path d="M827.087+175.161L861.684+175.161C879.075+175.161+893.173+181.746+893.173+189.869L893.173+808.226C893.173+816.349+879.075+822.934+861.684+822.934L827.087+822.934C809.697+822.934+795.599+816.349+795.599+808.226L795.599+189.869C795.599+181.746+809.697+175.161+827.087+175.161Z" opacity="1" fill="#000000"/>
<path d="M546.181+441.639L810.892+441.639C819.532+441.639+826.536+450.607+826.536+461.67L826.536+498.293C826.536+509.356+819.532+518.324+810.892+518.324L546.181+518.324C537.542+518.324+530.538+509.356+530.538+498.293L530.538+461.67C530.538+450.607+537.542+441.639+546.181+441.639Z" opacity="1" fill="#000000"/>
</g>
</g>
</svg>
